<svg xmlns="http://www.w3.org/2000/svg" xml:space="preserve" viewBox="0 0 512 512" width="32" height="32"><path d="M256.176 512c-96.147 0-138.323-149.601-138.323-256 0-137.987 57.349-256 138.323-256 96.147 0 138.323 149.601 138.323 256 0 137.698-57.203 256-138.323 256zm0-472.615c-23.507 0-47.669 21.27-66.286 58.356-21.056 41.943-32.652 98.148-32.652 158.259 0 169.658 96.239 295.673 165.225 158.259 21.055-41.943 32.651-98.148 32.651-158.259 0-123.82-49.499-216.615-98.938-216.615z" style="fill:#808285"/><path d="M256.176 0c-.059 0-.117.004-.176.004V39.39c.059 0 .117-.005.176-.005 49.44 0 98.938 92.795 98.938 216.615 0 60.111-11.596 116.316-32.652 158.259-20.804 41.442-44.087 58.915-66.462 58.466v39.269c.059 0 .117.004.176.004 81.12 0 138.323-118.302 138.323-256C394.499 149.601 352.323 0 256.176 0z" style="fill:#6d6e71"/><path d="M34.473 384C-13.6 300.734 94.871 189.407 187.014 136.209 306.558 67.19 437.405 57.899 477.878 128c63.143 109.363-147.642 293.593-323.32 303.852-46.606 2.722-96.849-7.607-120.085-47.852zm172.233-213.684c-146.878 84.8-207.984 231.181-54.444 222.219 160.284-9.362 332.33-174.138 291.509-244.842-24.425-42.305-128.667-39.96-237.065 22.623z" style="fill:#78c8ff"/><path d="M477.878 128C445.131 71.28 353.218 66.544 256 103.358v42.37c89.193-37.658 167.092-33.854 187.771 1.964C475.732 203.05 377.205 316.069 256 367.02v41.989C400.221 354.523 529.068 216.661 477.878 128z" style="fill:#78c8ff"/><path d="M357.793 431.852C183.304 421.661-29.032 237.996 34.473 128c63.886-110.655 329.7-16.476 424.804 128.077 31.756 48.266 38.363 93.696 18.601 127.923-23.238 40.251-73.493 50.571-120.085 47.852zM68.582 147.692C27.61 218.657 200.195 383.195 360.091 392.535c86.587 5.061 113.994-42.303 66.286-114.81C337.976 143.365 109.28 77.202 68.582 147.692z" style="fill:#78c8ff"/><path d="M459.277 256.077C415.54 189.6 335.7 133.779 256 103.631v42.119c65.309 26.871 131.446 72.805 170.377 131.974 47.708 72.507 20.301 119.87-66.286 114.81-34.875-2.038-70.355-11.46-104.09-25.681v41.946c33.858 12.85 68.513 21.11 101.793 23.054 46.592 2.719 96.847-7.601 120.085-47.852 19.761-34.228 13.154-79.658-18.602-127.924z" style="fill:#5f9beb"/><path d="M256.176 309.792c-29.661 0-53.792-24.131-53.792-53.792s24.131-53.792 53.792-53.792 53.792 24.131 53.792 53.792-24.132 53.792-53.792 53.792z" style="fill:#78c8ff"/><path d="M256.176 202.208c-.059 0-.117.004-.176.004v107.573c.059 0 .117.004.176.004 29.661 0 53.792-24.131 53.792-53.792s-24.132-53.789-53.792-53.789z" style="fill:#78c8ff"/></svg>